<?xml version="1.0" encoding="UTF-8"?>
<!DOCTYPE svg PUBLIC "-//W3C//DTD SVG 1.1//EN" "http://www.w3.org/Graphics/SVG/1.1/DTD/svg11.dtd">
<!-- Creator: CorelDRAW 2021 (64-Bit) -->
<svg xmlns="http://www.w3.org/2000/svg" xml:space="preserve" width="1in" height="1in" version="1.1" style="shape-rendering:geometricPrecision; text-rendering:geometricPrecision; image-rendering:optimizeQuality; fill-rule:evenodd; clip-rule:evenodd"
viewBox="0 0 1000 1000"
 xmlns:xlink="http://www.w3.org/1999/xlink"
 xmlns:xodm="http://www.corel.com/coreldraw/odm/2003">
 <defs>
  <style type="text/css">
   <![CDATA[
    .fil0 {fill:#0065A7;fill-rule:nonzero}
    .fil3 {fill:#16B100;fill-rule:nonzero}
    .fil4 {fill:#4F4F4F;fill-rule:nonzero}
    .fil2 {fill:#FDB600;fill-rule:nonzero}
    .fil1 {fill:red;fill-rule:nonzero}
   ]]>
  </style>
 </defs>
 <g id="Layer_x0020_1">
  <metadata id="CorelCorpID_0Corel-Layer"/>
  <g id="_1785433228432">
   <path class="fil0" d="M327.18 375.09l33.08 0c6.67,-64.77 58.11,-116.46 122.73,-123.57l0 -33.12c-82.87,7.33 -148.95,73.75 -155.81,156.69z"/>
   <path class="fil1" d="M510.43 218.15l0 33.08c66.09,5.75 119.06,58.07 125.84,123.86l33.08 0c-6.92,-84.01 -74.62,-151.05 -158.92,-156.94z"/>
   <path class="fil2" d="M636.38 402.53c-6.23,66.38 -59.46,119.32 -125.95,125.11l0 33.08c84.7,-5.93 152.62,-73.6 159.03,-158.19l-33.08 0z"/>
   <path class="fil3" d="M360.15 402.53l-33.08 0c6.34,83.53 72.65,150.57 155.91,157.93l0 -33.12c-65.02,-7.15 -116.68,-59.46 -122.83,-124.81z"/>
   <path class="fil0" d="M327.37 375.11l0 0c0,-18.36 14.88,-33.24 33.23,-33.24l44.23 0c9.19,0 16.64,7.45 16.64,16.63 0,9.19 -7.45,16.63 -16.64,16.63l-77.43 0c-0.01,0 -0.03,-0.01 -0.03,-0.03z"/>
   <path class="fil3" d="M327.19 402.55l0 0 77.46 0c9.19,0 16.63,7.45 16.63,16.63 0,9.19 -7.44,16.63 -16.63,16.63l-44.2 0c-18.37,0 -33.26,-14.89 -33.26,-33.26z"/>
   <path class="fil1" d="M574.29 358.42l0 0c0,-9.19 7.45,-16.63 16.63,-16.63l44.21 0c18.37,0 33.26,14.89 33.26,33.26l-77.47 0c-9.18,0 -16.63,-7.44 -16.63,-16.63z"/>
   <path class="fil2" d="M573.2 419.17l0 0c0,-9.19 7.45,-16.63 16.63,-16.63l77.47 0c0,18.37 -14.89,33.27 -33.26,33.27l-44.21 0c-9.18,0 -16.63,-7.45 -16.63,-16.63z"/>
   <path class="fil0" d="M482.7 220.72l0 0c0.16,0 0.29,0.13 0.29,0.29l0 73.97c0,9.19 -7.45,16.63 -16.63,16.63 -9.19,0 -16.64,-7.44 -16.64,-16.63l0 -41.27c0,-18.21 14.77,-32.98 32.98,-32.98z"/>
   <path class="fil1" d="M510.42 219.29c18.37,0 33.27,14.89 33.27,33.26l0 41.14c0,9.11 -7.39,16.49 -16.49,16.49l-0.29 0c-9.11,0 -16.49,-7.38 -16.49,-16.49l0 -74.4z"/>
   <path class="fil3" d="M466.33 467.62c9.19,0 16.63,7.45 16.63,16.63l0 74.26c-18.37,0 -33.26,-14.89 -33.26,-33.27l0 -40.99c0,-9.19 7.45,-16.63 16.63,-16.63z"/>
   <path class="fil2" d="M527.03 464.65l0 0c9.19,0 16.63,7.45 16.63,16.63l0 57.63c0,9.19 -7.44,16.63 -16.63,16.63 -9.19,0 -16.63,-7.45 -16.63,-16.63l0 -57.63c0,-9.19 7.44,-16.63 16.63,-16.63z"/>
   <path class="fil1" d="M622.05 237.94c0,-16.59 13.45,-30.05 30.05,-30.05 16.6,0 30.05,13.45 30.05,30.05 0,16.6 -13.45,30.05 -30.05,30.05 -16.59,0 -30.05,-13.45 -30.05,-30.05z"/>
   <path class="fil0" d="M317.05 237.76c0,-16.59 13.46,-30.05 30.05,-30.05 16.6,0 30.05,13.45 30.05,30.05 0,16.6 -13.45,30.05 -30.05,30.05 -16.59,0 -30.05,-13.45 -30.05,-30.05z"/>
   <path class="fil2" d="M621.97 541.67c0,-16.6 13.45,-30.05 30.05,-30.05 16.59,0 30.05,13.45 30.05,30.05 0,16.59 -13.46,30.05 -30.05,30.05 -16.6,0 -30.05,-13.45 -30.05,-30.05z"/>
   <path class="fil3" d="M316.99 541.49c0,-16.6 13.45,-30.05 30.05,-30.05 16.6,0 30.05,13.45 30.05,30.05 0,16.6 -13.45,30.05 -30.05,30.05 -16.59,0 -30.05,-13.45 -30.05,-30.05z"/>
   <path class="fil4" d="M149.18 765.17l39.63 0c8.61,0 15.22,-1.46 19.81,-4.38 4.59,-2.92 6.89,-7.44 6.89,-13.55 0,-6.26 -2.29,-10.85 -6.89,-13.77 -4.59,-2.93 -11.19,-4.38 -19.81,-4.38l-42.14 0 0 -24.62 36.08 0c8.21,0 14.5,-1.42 18.87,-4.27 4.39,-2.85 6.57,-7.19 6.57,-13.03 0,-5.84 -2.19,-10.15 -6.57,-12.93 -4.37,-2.79 -10.67,-4.18 -18.87,-4.18l-33.58 0 0 95.11zm-33.58 25.45l0 -146 71.33 0c18.35,0 32.15,3.47 41.4,10.43 9.25,6.95 13.87,16.13 13.87,27.53 0,7.65 -1.87,14.29 -5.63,19.92 -3.75,5.63 -8.94,9.97 -15.54,13.03 -6.61,3.06 -14.08,4.59 -22.42,4.59l3.96 -8.76c9.18,0 17.28,1.53 24.3,4.59 7.02,3.06 12.55,7.51 16.58,13.35 4.03,5.84 6.05,13 6.05,21.48 0,12.52 -4.93,22.29 -14.81,29.31 -9.87,7.02 -24.4,10.53 -43.59,10.53l-75.51 0z"/>
   <path class="fil4" d="M262.43 678.41l32.54 0 0 112.21 -32.54 0 0 -112.21zm16.27 -15.65c-6.11,0 -11.05,-1.73 -14.81,-5.21 -3.75,-3.47 -5.63,-7.79 -5.63,-12.93 0,-5.15 1.88,-9.45 5.63,-12.93 3.76,-3.47 8.69,-5.21 14.81,-5.21 5.98,0 10.89,1.63 14.71,4.9 3.83,3.27 5.73,7.47 5.73,12.62 0,5.42 -1.87,9.91 -5.63,13.45 -3.76,3.55 -8.69,5.31 -14.81,5.31z"/>
   <polygon class="fil4" points="307.28,790.62 307.28,770.81 373.4,692.59 379.03,703.43 308.53,703.43 308.53,678.41 405.31,678.41 405.31,698.22 339.19,776.23 333.14,765.59 407.19,765.59 407.19,790.62 "/>
   <path class="fil4" d="M453.91 763.09l30.66 0c9.73,0 18.18,-1.84 25.34,-5.53 7.17,-3.68 12.73,-8.97 16.69,-15.85 3.97,-6.89 5.95,-14.91 5.95,-24.09 0,-9.32 -1.98,-17.38 -5.95,-24.19 -3.96,-6.81 -9.52,-12.06 -16.69,-15.75 -7.16,-3.69 -15.61,-5.53 -25.34,-5.53l-30.66 0 0 90.93zm-34 27.53l0 -146 66.33 0c15.85,0 29.83,3.02 41.93,9.07 12.09,6.05 21.55,14.53 28.37,25.44 6.81,10.92 10.22,23.75 10.22,38.49 0,14.74 -3.41,27.57 -10.22,38.48 -6.81,10.92 -16.27,19.4 -28.37,25.45 -12.1,6.05 -26.07,9.07 -41.93,9.07l-66.33 0z"/>
   <path class="fil4" d="M648.3 790.62l0 -21.9 -2.09 -4.8 0 -39.21c0,-6.95 -2.13,-12.37 -6.37,-16.27 -4.24,-3.89 -10.74,-5.84 -19.5,-5.84 -5.98,0 -11.85,0.94 -17.62,2.81 -5.77,1.88 -10.75,4.42 -14.91,7.61l-11.47 -22.73c6.12,-4.45 13.48,-7.83 22.11,-10.12 8.62,-2.29 17.39,-3.44 26.28,-3.44 17.11,0 30.38,4.03 39.84,12.09 9.45,8.07 14.19,20.65 14.19,37.75l0 64.03 -30.45 0zm-34.21 1.67c-8.63,0 -16.07,-1.49 -22.32,-4.49 -6.26,-2.99 -11.09,-7.05 -14.49,-12.2 -3.41,-5.14 -5.11,-10.91 -5.11,-17.31 0,-6.53 1.63,-12.33 4.9,-17.41 3.27,-5.07 8.45,-9 15.54,-11.78 7.09,-2.79 16.41,-4.17 27.95,-4.17l29.61 0 0 18.77 -26.28 0c-7.65,0 -12.9,1.25 -15.75,3.75 -2.85,2.5 -4.27,5.63 -4.27,9.39 0,4.17 1.63,7.47 4.9,9.91 3.27,2.43 7.68,3.65 13.24,3.65 5.57,0 10.53,-1.25 14.91,-3.75 4.38,-2.5 7.48,-6.33 9.29,-11.47l5.01 15.23c-2.37,6.96 -6.68,12.34 -12.93,16.17 -6.26,3.83 -14.33,5.73 -24.19,5.73z"/>
   <path class="fil4" d="M743.61 792.29c-13.21,0 -23.5,-3.37 -30.87,-10.11 -7.38,-6.75 -11.05,-16.79 -11.05,-30.14l0 -98.45 32.74 0 0 97.82c0,4.73 1.22,8.41 3.65,11.06 2.43,2.64 5.73,3.96 9.91,3.96 5.28,0 9.73,-1.39 13.35,-4.17l8.55 22.94c-3.2,2.37 -7.13,4.15 -11.79,5.32 -4.66,1.18 -9.49,1.77 -14.49,1.77zm-59.23 -111.38l77.8 0 0 25.03 -77.8 0 0 -25.03zm0 25.03l0 -25.03z"/>
   <path class="fil4" d="M830.17 792.29c-12.79,0 -23.98,-2.5 -33.58,-7.51 -9.59,-5.01 -17.03,-11.85 -22.31,-20.55 -5.29,-8.69 -7.93,-18.59 -7.93,-29.72 0,-11.12 2.54,-21.07 7.61,-29.83 5.07,-8.76 12.17,-15.61 21.27,-20.55 9.11,-4.93 19.37,-7.4 30.77,-7.4 10.98,0 20.89,2.37 29.72,7.09 8.83,4.73 15.81,11.4 20.96,20.02 5.15,8.62 7.72,18.98 7.72,31.08 0,1.25 -0.07,2.67 -0.21,4.27 -0.14,1.6 -0.28,3.09 -0.42,4.49l-91.15 0 0 -18.98 74.05 0 -12.72 5.63c0.13,-5.84 -0.98,-10.91 -3.35,-15.23 -2.36,-4.31 -5.63,-7.68 -9.8,-10.11 -4.17,-2.43 -9.04,-3.65 -14.6,-3.65 -5.56,0 -10.46,1.21 -14.71,3.65 -4.24,2.43 -7.54,5.84 -9.9,10.22 -2.37,4.38 -3.55,9.56 -3.55,15.54l0 5c0,6.26 1.39,11.68 4.17,16.27 2.78,4.59 6.6,8.1 11.47,10.53 4.87,2.43 10.71,3.65 17.52,3.65 5.85,0 11.02,-0.9 15.54,-2.71 4.52,-1.81 8.65,-4.52 12.41,-8.13l17.31 18.77c-5.15,5.84 -11.61,10.33 -19.39,13.45 -7.79,3.13 -16.76,4.69 -26.91,4.69z"/>
  </g>
 </g>
</svg>
